<svg id="visual" viewBox="0 0 900 600" width="900" height="600" xmlns="http://www.w3.org/2000/svg" xmlns:xlink="http://www.w3.org/1999/xlink" version="1.1"><rect x="0" y="0" width="900" height="600" fill="#352922"></rect><path d="M0 493L21.5 475.3C43 457.7 86 422.3 128.8 407.2C171.7 392 214.3 397 257.2 414.7C300 432.3 343 462.7 385.8 463.8C428.7 465 471.3 437 514.2 437.5C557 438 600 467 642.8 485.3C685.7 503.7 728.3 511.3 771.2 502C814 492.7 857 466.3 878.5 453.2L900 440L900 601L878.5 601C857 601 814 601 771.2 601C728.3 601 685.7 601 642.8 601C600 601 557 601 514.2 601C471.3 601 428.7 601 385.8 601C343 601 300 601 257.2 601C214.3 601 171.7 601 128.8 601C86 601 43 601 21.5 601L0 601Z" fill="#e8d3b1" stroke-linecap="round" stroke-linejoin="miter"></path></svg>