<svg id="visual" viewBox="0 0 900 600" width="900" height="600" xmlns="http://www.w3.org/2000/svg" xmlns:xlink="http://www.w3.org/1999/xlink" version="1.1"><rect x="0" y="0" width="900" height="600" fill="#1e1503"></rect><defs><linearGradient id="grad1_0" x1="33.3%" y1="100%" x2="100%" y2="0%"><stop offset="20%" stop-color="#1e1503" stop-opacity="1"></stop><stop offset="80%" stop-color="#1e1503" stop-opacity="1"></stop></linearGradient></defs><defs><linearGradient id="grad2_0" x1="0%" y1="100%" x2="66.7%" y2="0%"><stop offset="20%" stop-color="#1e1503" stop-opacity="1"></stop><stop offset="80%" stop-color="#1e1503" stop-opacity="1"></stop></linearGradient></defs><g transform="translate(900, 600)"><path d="M-324.5 0C-321.1 -33 -317.7 -66 -308.6 -100.3C-299.5 -134.6 -284.7 -170.1 -254 -184.6C-223.3 -199 -176.7 -192.4 -148.1 -203.9C-119.5 -215.4 -108.8 -245.1 -87.1 -268.2C-65.4 -291.3 -32.7 -307.9 0 -324.5L0 0Z" fill="#ebbd79"></path></g><g transform="translate(0, 0)"><path d="M324.5 0C266.7 18 209 36 196.9 64C184.7 91.9 218.2 129.9 222.5 161.6C226.7 193.4 201.8 218.9 177.5 244.3C153.3 269.8 129.7 295.3 100.3 308.6C70.8 322 35.4 323.2 0 324.5L0 0Z" fill="#ebbd79"></path></g></svg>