<svg id="visual" viewBox="0 0 900 600" width="900" height="600" xmlns="http://www.w3.org/2000/svg" xmlns:xlink="http://www.w3.org/1999/xlink" version="1.1"><rect x="0" y="0" width="900" height="600" fill="#1e1503"></rect><defs><linearGradient id="grad1_0" x1="33.3%" y1="100%" x2="100%" y2="0%"><stop offset="20%" stop-color="#1e1503" stop-opacity="1"></stop><stop offset="80%" stop-color="#1e1503" stop-opacity="1"></stop></linearGradient></defs><defs><linearGradient id="grad2_0" x1="0%" y1="100%" x2="66.7%" y2="0%"><stop offset="20%" stop-color="#1e1503" stop-opacity="1"></stop><stop offset="80%" stop-color="#1e1503" stop-opacity="1"></stop></linearGradient></defs><g transform="translate(900, 600)"><path d="M-324.5 0C-314.5 -32.1 -304.6 -64.3 -292 -94.9C-279.4 -125.5 -264.1 -154.5 -243.5 -176.9C-222.9 -199.4 -196.9 -215.2 -173.4 -238.7C-149.9 -262.1 -128.8 -293.1 -100.3 -308.6C-71.8 -324.2 -35.9 -324.3 0 -324.5L0 0Z" fill="#ebbd79"></path></g><g transform="translate(0, 0)"><path d="M324.5 0C305.2 28.7 285.9 57.5 278.7 90.5C271.4 123.6 276.1 160.9 262.5 190.7C248.9 220.5 217 242.8 185.2 254.8C153.3 266.9 121.4 268.7 90.5 278.7C59.7 288.6 29.8 306.5 0 324.5L0 0Z" fill="#ebbd79"></path></g></svg>